<?xml version="1.0" encoding="UTF-8"?>
<svg version="1.1" xmlns="http://www.w3.org/2000/svg" width="500" height="200">
<path d="M0 0 C16.01808286 5.4664886 31.80960554 11.44804476 47.59799194 17.53765869 C52.35852941 19.37266659 57.12614706 21.18799533 61.8984375 22.9921875 C63.10290527 23.44940186 64.30737305 23.90661621 65.54833984 24.37768555 C67.79977879 25.23204755 70.05264859 26.08265119 72.30712891 26.92895508 C73.7947876 27.4958606 73.7947876 27.4958606 75.3125 28.07421875 C76.17488281 28.39994873 77.03726563 28.72567871 77.92578125 29.0612793 C80 30 80 30 82 32 C79.12037219 32.80628862 76.45061327 33.17205247 73.46606445 33.30957031 C72.57446121 33.35341858 71.68285797 33.39726685 70.76423645 33.44244385 C69.80692123 33.48721863 68.84960602 33.53199341 67.86328125 33.578125 C65.8209025 33.68766988 63.77858621 33.79838436 61.73632812 33.91015625 C58.52873904 34.08308927 55.32146558 34.24959095 52.11254883 34.39599609 C49.00716064 34.54018766 45.90441811 34.71306421 42.80078125 34.890625 C41.85358719 34.92730286 40.90639313 34.96398071 39.93049622 35.00177002 C29.78710141 35.63290007 23.00361925 40.23878802 16.12890625 47.49609375 C7.51867146 57.62299375 0.81557716 70.73939215 -1 84 C-1.19916016 85.34771484 -1.19916016 85.34771484 -1.40234375 86.72265625 C-2.94586217 99.8859201 -0.97377558 113.58298859 6.82421875 124.5703125 C13.97569705 133.08464619 22.51676377 138.09063694 33.66015625 139.28515625 C44.79432582 139.65362517 55.1021407 136.78319438 64 130 C65.92459826 128.08409067 67.41485348 126.21920512 69 124 C70 126 70 126 69.25 128.46875 C62.54130894 144.73732582 52.44405874 156.9913752 36 164 C21.51766583 168.4919273 4.54661785 167.52373744 -8.87890625 160.4921875 C-24.61569692 151.08075497 -34.67314803 138.03130345 -39.75 120.39453125 C-44.51069462 98.54162055 -39.50860923 75.30502234 -27.625 56.625 C-19.876785 44.94774854 -10.99597176 37.19758306 1 30 C0.67 20.1 0.34 10.2 0 0 Z " fill="#2A2A29" transform="translate(54,4)"/>
<path d="M0 0 C35.97 0 71.94 0 109 0 C107.81872083 12.99407087 107.81872083 12.99407087 105.9375 19.1875 C105.72270996 19.90236572 105.50791992 20.61723145 105.28662109 21.35375977 C98.43133297 42.99566208 85.37653527 61.35590902 65 72 C54.40175767 76.81868664 43.44405717 78.37811466 31.875 78.3125 C30.39036255 78.30839111 30.39036255 78.30839111 28.87573242 78.30419922 C18.98636289 78.1654626 7.90137811 77.69845438 -1 73 C-0.43192627 72.93006836 0.13614746 72.86013672 0.72143555 72.78808594 C22.0054346 70.11171933 43.04307439 66.28466882 57.03515625 48.3984375 C62.53569382 40.29361144 65.54594479 31.65093504 67 22 C59.90265102 19.18034668 52.65244131 17.08210649 45.3125 14.98828125 C44.0010583 14.61170683 42.68969894 14.23484552 41.37841797 13.85771179 C37.95326717 12.87343722 34.52702318 11.89302389 31.1005249 10.91345215 C27.59368252 9.91015794 24.08790459 8.90315844 20.58203125 7.89648438 C13.72238262 5.927393 6.86157047 3.96238502 0 2 C0 1.34 0 0.68 0 0 Z " fill="#008CD1" transform="translate(63,105)"/>
<path d="M0 0 C3.96 0 7.92 0 12 0 C15.3 8.25 18.6 16.5 22 25 C24.82738916 18.77974384 27.63852668 12.59322803 30.3125 6.3125 C31.08013672 4.51232422 31.08013672 4.51232422 31.86328125 2.67578125 C32.23839844 1.79277344 32.61351562 0.90976563 33 0 C36.63 0 40.26 0 44 0 C44 13.53 44 27.06 44 41 C41.03 41 38.06 41 35 41 C34.67 34.4 34.34 27.8 34 21 C31.36 27.6 28.72 34.2 26 41 C23.69 41 21.38 41 19 41 C15.94845152 35.11487079 13.40312694 29.17946927 11 23 C10.67 28.94 10.34 34.88 10 41 C6.7 41 3.4 41 0 41 C0 27.47 0 13.94 0 0 Z " fill="#008CD1" transform="translate(366,97)"/>
<path d="M0 0 C3.63 0 7.26 0 11 0 C13.73466944 5.1538001 16.06170892 10.40930413 18.25 15.8125 C18.52021973 16.47064697 18.79043945 17.12879395 19.06884766 17.80688477 C20.2240045 20.69774833 21 22.85657667 21 26 C21.66 26 22.32 26 23 26 C23.12761719 25.27458008 23.25523437 24.54916016 23.38671875 23.80175781 C23.97759052 21.10237706 24.78381397 18.73231962 25.8125 16.171875 C26.16570312 15.29015625 26.51890625 14.4084375 26.8828125 13.5 C27.25148438 12.5925 27.62015625 11.685 28 10.75 C28.36867188 9.82703125 28.73734375 8.9040625 29.1171875 7.953125 C31.86414717 1.13585283 31.86414717 1.13585283 33 0 C36.63 0 40.26 0 44 0 C44 13.53 44 27.06 44 41 C41.03 41 38.06 41 35 41 C34.67 34.4 34.34 27.8 34 21 C31.36 27.6 28.72 34.2 26 41 C23.36 41 20.72 41 18 41 C15.36 34.4 12.72 27.8 10 21 C9.67 27.6 9.34 34.2 9 41 C6.03 41 3.06 41 0 41 C0 27.47 0 13.94 0 0 Z " fill="#008CD1" transform="translate(300,97)"/>
<path d="M0 0 C0.68578125 -0.00386719 1.3715625 -0.00773437 2.078125 -0.01171875 C6.15626809 -0.00393603 9.99977115 0.33745494 14 1.125 C12.52890425 5.03003313 10.72953895 8.63321449 8.7421875 12.30078125 C8.11699219 13.45771484 7.49179688 14.61464844 6.84765625 15.80664062 C6.19016295 17.01695902 5.53261012 18.22724507 4.875 19.4375 C4.20938713 20.66718334 3.54402002 21.89699975 2.87890625 23.12695312 C1.25501624 26.12761946 -0.37136671 29.12690626 -2 32.125 C-2.92216309 31.84277588 -3.84432617 31.56055176 -4.79443359 31.26977539 C-17.29312004 27.55061015 -28.09331088 25.78752753 -40.3984375 31.625 C-45.2612972 34.428811 -48.88746899 37.45620349 -52 42.125 C-52.66 41.795 -53.32 41.465 -54 41.125 C-48.04532432 25.15439517 -38.64548257 11.77554258 -23 4.125 C-15.4346221 1.01343328 -8.1724463 -0.04608522 0 0 Z " fill="#008CD1" transform="translate(114,38.875)"/>
<path d="M0 0 C4.2939334 4.10724064 5.64496506 7.08275106 6 13 C2.7 13 -0.6 13 -4 13 C-4.2475 12.21625 -4.495 11.4325 -4.75 10.625 C-5.78032062 7.9785387 -5.78032062 7.9785387 -7.6875 6.625 C-11.03359983 5.72064869 -13.64393776 6.26776824 -17 7 C-20.24849977 8.72226496 -20.24849977 8.72226496 -21 12 C-21.17066284 14.12069561 -21.2662598 16.24795098 -21.3125 18.375 C-21.34988281 19.49648437 -21.38726562 20.61796875 -21.42578125 21.7734375 C-20.90701281 25.70465523 -19.88095774 27.30779467 -17 30 C-14.761862 30.70760859 -14.761862 30.70760859 -12.4375 30.5 C-11.67308594 30.4896875 -10.90867188 30.479375 -10.12109375 30.46875 C-7.52676019 29.89541662 -6.61121619 29.08364069 -5 27 C-4.27802838 24.39388923 -4.27802838 24.39388923 -4 22 C-7.3 22 -10.6 22 -14 22 C-14 19.36 -14 16.72 -14 14 C-7.4 14 -0.8 14 6 14 C6 22.25 6 30.5 6 39 C4.02 39 2.04 39 0 39 C0 38.34 0 37.68 0 37 C-0.639375 37.309375 -1.27875 37.61875 -1.9375 37.9375 C-9.05320618 40.40621439 -15.87619289 40.56401618 -23 38 C-27.33577671 35.36083157 -29.11869514 32.67155476 -31 28 C-31.42088351 24.82300831 -31.4197987 21.70061807 -31.375 18.5 C-31.38660156 17.67113281 -31.39820313 16.84226562 -31.41015625 15.98828125 C-31.38069976 9.81223726 -30.13674794 5.65251469 -26.1875 0.75 C-18.94643652 -5.04285078 -7.71451411 -4.62870847 0 0 Z " fill="#008CD0" transform="translate(214,99)"/>
<path d="M0 0 C16.03151391 5.416052 31.81324724 11.44944938 47.59799194 17.53765869 C52.35852941 19.37266659 57.12614706 21.18799533 61.8984375 22.9921875 C63.10290527 23.44940186 64.30737305 23.90661621 65.54833984 24.37768555 C67.79977879 25.23204755 70.05264859 26.08265119 72.30712891 26.92895508 C73.7947876 27.4958606 73.7947876 27.4958606 75.3125 28.07421875 C76.17488281 28.39994873 77.03726563 28.72567871 77.92578125 29.0612793 C80 30 80 30 82 32 C79.02367327 32.83468556 76.22268453 33.2023112 73.13964844 33.38891602 C72.17895447 33.44890274 71.2182605 33.50888947 70.22845459 33.57069397 C69.19915833 33.63115402 68.16986206 33.69161407 67.109375 33.75390625 C66.04962463 33.81907944 64.98987427 33.88425262 63.89801025 33.95140076 C60.51554333 34.15860919 57.13278859 34.36061771 53.75 34.5625 C51.45570829 34.70213143 49.16143716 34.8421013 46.8671875 34.98242188 C41.24502439 35.32554094 35.6226162 35.66439203 30 36 C35.52720293 30.29213761 42.03532719 28.94315872 49.83984375 28.74609375 C55.56253953 28.70843278 61.28047859 28.81254562 67 29 C64.79290017 28.34996375 62.58426108 27.70515255 60.375 27.0625 C59.14523438 26.70285156 57.91546875 26.34320312 56.6484375 25.97265625 C40.51625211 21.67189162 24.57178607 23.54299428 8.85546875 28.44873047 C6.59510379 29.1202968 4.3227666 29.59904624 2 30 C1.65802981 26.87588408 1.32807747 23.75060292 1 20.625 C0.90460937 19.75488281 0.80921875 18.88476562 0.7109375 17.98828125 C0.08678885 11.96970497 -0.11723906 6.04920988 0 0 Z " fill="#008ACF" transform="translate(54,4)"/>
<path d="M0 0 C1.51400391 0.01740234 1.51400391 0.01740234 3.05859375 0.03515625 C4.07050781 0.04417969 5.08242188 0.05320312 6.125 0.0625 C7.29869141 0.07990234 7.29869141 0.07990234 8.49609375 0.09765625 C12.2450334 7.10416968 15.08108636 14.43063489 17.92480469 21.8359375 C18.75293726 23.99046077 19.58894891 26.14181164 20.42578125 28.29296875 C20.95489426 29.66258003 21.48355679 31.03236544 22.01171875 32.40234375 C22.38662445 33.36634598 22.38662445 33.36634598 22.769104 34.349823 C24.49609375 38.86727748 24.49609375 38.86727748 24.49609375 41.09765625 C21.19609375 41.09765625 17.89609375 41.09765625 14.49609375 41.09765625 C13.50609375 38.12765625 12.51609375 35.15765625 11.49609375 32.09765625 C5.88609375 32.09765625 0.27609375 32.09765625 -5.50390625 32.09765625 C-5.83390625 34.07765625 -6.16390625 36.05765625 -6.50390625 38.09765625 C-7.16390625 39.08765625 -7.82390625 40.07765625 -8.50390625 41.09765625 C-10.88671875 41.390625 -10.88671875 41.390625 -13.62890625 41.28515625 C-14.99402344 41.24455078 -14.99402344 41.24455078 -16.38671875 41.203125 C-17.08539063 41.16832031 -17.7840625 41.13351563 -18.50390625 41.09765625 C-16.03399736 33.35975985 -13.14366072 25.79788567 -10.20556641 18.22900391 C-9.37046824 16.07590083 -8.54054502 13.92084876 -7.7109375 11.765625 C-7.18129729 10.3970163 -6.65136046 9.02852234 -6.12109375 7.66015625 C-5.87318085 7.01546387 -5.62526794 6.37077148 -5.36984253 5.70654297 C-3.19478996 0.12460179 -3.19478996 0.12460179 0 0 Z M2.49609375 12.09765625 C1.17609375 16.05765625 -0.14390625 20.01765625 -1.50390625 24.09765625 C1.46609375 24.09765625 4.43609375 24.09765625 7.49609375 24.09765625 C7.04575252 22.47042326 6.58554021 20.84591961 6.12109375 19.22265625 C5.86585938 18.31773438 5.610625 17.4128125 5.34765625 16.48046875 C4.63566225 13.95195899 4.63566225 13.95195899 2.49609375 12.09765625 Z " fill="#008BCF" transform="translate(447.50390625,96.90234375)"/>
<path d="M0 0 C2.83203125 0.03255208 5.6640625 0.06510417 8.49609375 0.09765625 C12.15024231 7.88040087 15.44303651 15.77332157 18.57299805 23.78051758 C19.32061235 25.69086691 20.07511021 27.59840587 20.83007812 29.50585938 C21.54067383 31.31666992 21.54067383 31.31666992 22.265625 33.1640625 C22.90914917 34.80290405 22.90914917 34.80290405 23.56567383 36.47485352 C24.49609375 39.09765625 24.49609375 39.09765625 24.49609375 41.09765625 C21.19609375 41.09765625 17.89609375 41.09765625 14.49609375 41.09765625 C13.50609375 38.12765625 12.51609375 35.15765625 11.49609375 32.09765625 C5.88609375 32.09765625 0.27609375 32.09765625 -5.50390625 32.09765625 C-5.99890625 34.57265625 -5.99890625 34.57265625 -6.50390625 37.09765625 C-7.16390625 38.41765625 -7.82390625 39.73765625 -8.50390625 41.09765625 C-11.80390625 41.09765625 -15.10390625 41.09765625 -18.50390625 41.09765625 C-16.26679339 33.03309904 -13.33824168 25.32833732 -10.20556641 17.58081055 C-9.36864672 15.50976802 -8.53935613 13.43578384 -7.7109375 11.36132812 C-3.19845519 0.12474474 -3.19845519 0.12474474 0 0 Z M2.49609375 12.09765625 C1.82522255 13.72092495 1.15952346 15.34633203 0.49609375 16.97265625 C0.12484375 17.87757812 -0.24640625 18.7825 -0.62890625 19.71484375 C-1.61880851 21.98749483 -1.61880851 21.98749483 -1.50390625 24.09765625 C1.46609375 24.09765625 4.43609375 24.09765625 7.49609375 24.09765625 C7.04575252 22.47042326 6.58554021 20.84591961 6.12109375 19.22265625 C5.86585938 18.31773438 5.610625 17.4128125 5.34765625 16.48046875 C4.63566225 13.95195899 4.63566225 13.95195899 2.49609375 12.09765625 Z " fill="#008CD0" transform="translate(256.50390625,96.90234375)"/>
<path d="M0 0 C3.4585388 -0.05375967 6.91624908 -0.09355681 10.375 -0.125 C11.35984375 -0.14175781 12.3446875 -0.15851563 13.359375 -0.17578125 C14.77089844 -0.18544922 14.77089844 -0.18544922 16.2109375 -0.1953125 C17.51490479 -0.21102295 17.51490479 -0.21102295 18.84521484 -0.22705078 C21 0 21 0 23 2 C23.14497985 4.58064129 23.18677545 7.04943884 23.125 9.625 C23.11597656 10.33140625 23.10695313 11.0378125 23.09765625 11.765625 C23.07407603 13.51056098 23.03820461 15.25532295 23 17 C22.01 17 21.02 17 20 17 C19.505 10.565 19.505 10.565 19 4 C17.35 4.33 15.7 4.66 14 5 C13.67 8.96 13.34 12.92 13 17 C12.01 17 11.02 17 10 17 C9.67 12.71 9.34 8.42 9 4 C7.68 4 6.36 4 5 4 C4.67 8.29 4.34 12.58 4 17 C2.68 17 1.36 17 0 17 C0 11.39 0 5.78 0 0 Z " fill="#008ACE" transform="translate(387,157)"/>
<path d="M0 0 C2 2 2 2 2.125 4.625 C2.08375 5.40875 2.0425 6.1925 2 7 C1.01 7 0.02 7 -1 7 C-1.33 6.01 -1.66 5.02 -2 4 C-4.97 3.505 -4.97 3.505 -8 3 C-8.33 4.32 -8.66 5.64 -9 7 C-8.30132812 7.32613281 -7.60265625 7.65226563 -6.8828125 7.98828125 C-5.97273437 8.42527344 -5.06265625 8.86226562 -4.125 9.3125 C-3.22007812 9.74175781 -2.31515625 10.17101562 -1.3828125 10.61328125 C1 12 1 12 3 15 C2.55555556 20.44444444 2.55555556 20.44444444 0 23 C-4.60786383 23.69037681 -8.69339096 23.87107269 -12.625 21.25 C-14 19 -14 19 -14 15 C-12.68 15 -11.36 15 -10 15 C-9.67 16.32 -9.34 17.64 -9 19 C-6.69 19 -4.38 19 -2 19 C-2 17.68 -2 16.36 -2 15 C-2.71027344 14.65066406 -3.42054688 14.30132812 -4.15234375 13.94140625 C-5.07144531 13.48636719 -5.99054688 13.03132812 -6.9375 12.5625 C-7.85402344 12.11003906 -8.77054688 11.65757812 -9.71484375 11.19140625 C-12 10 -12 10 -13 9 C-13.57417974 2.79885877 -13.57417974 2.79885877 -11.5625 0 C-7.69097933 -1.51083733 -3.99030961 -1.02453895 0 0 Z " fill="#0088CC" transform="translate(199,151)"/>
<path d="M0 0 C0.99 0 1.98 0 3 0 C3 7.59 3 15.18 3 23 C-0.63 23 -4.26 23 -8 23 C-11.09295516 19.90704484 -10.95591267 16.2544269 -11 12 C-9.76470588 7.76470588 -9.76470588 7.76470588 -8 6 C-5.32941149 5.85884839 -2.67567762 5.95752893 0 6 C0 4.02 0 2.04 0 0 Z M-6 9 C-7.14352916 11.28705831 -7.10334439 12.59264762 -7.0625 15.125 C-7.041875 16.40375 -7.02125 17.6825 -7 19 C-4.60280568 19.67958603 -4.60280568 19.67958603 -2 20 C0.38785276 18.05765911 0.38785276 18.05765911 0.1875 14.5 C0.24131237 11.15035297 0.24131237 11.15035297 -1 9 C-2.65 9 -4.3 9 -6 9 Z " fill="#0089CD" transform="translate(473,151)"/>
<path d="M0 0 C1.875 0.3125 1.875 0.3125 3.875 1.375 C5.40190415 4.33337678 5.05968872 7.04966599 4.875 10.3125 C1.575 10.6425 -1.725 10.9725 -5.125 11.3125 C-4.795 11.9725 -4.465 12.6325 -4.125 13.3125 C-0.92597361 13.40136184 1.80177456 13.22308531 4.875 12.3125 C4.5 14.25 4.5 14.25 3.875 16.3125 C0.67270558 17.91364721 -2.65000237 17.79573075 -6.125 17.3125 C-8.125 15.875 -8.125 15.875 -9.125 13.3125 C-9.65262985 9.20452474 -9.63953227 5.63098895 -8.125 1.75 C-5.40067882 -0.20810585 -3.29697103 -0.19393947 0 0 Z M-4.125 3.3125 C-4.785 4.6325 -5.445 5.9525 -6.125 7.3125 C-3.485 7.3125 -0.845 7.3125 1.875 7.3125 C1.545 5.9925 1.215 4.6725 0.875 3.3125 C-0.775 3.3125 -2.425 3.3125 -4.125 3.3125 Z " fill="#0089CD" transform="translate(451.125,156.6875)"/>
<path d="M0 0 C1.875 0.41796875 1.875 0.41796875 3.875 2.60546875 C4.875 5.41796875 4.875 5.41796875 4.875 10.41796875 C1.245 10.41796875 -2.385 10.41796875 -6.125 10.41796875 C-5.795 11.73796875 -5.465 13.05796875 -5.125 14.41796875 C-2.155 13.75796875 0.815 13.09796875 3.875 12.41796875 C2.875 16.41796875 2.875 16.41796875 1.875 17.41796875 C-5.42770907 17.88911127 -5.42770907 17.88911127 -7.859375 16.24609375 C-9.59732632 13.73571962 -9.52443978 11.94850107 -9.5 8.91796875 C-9.50773438 7.95890625 -9.51546875 6.99984375 -9.5234375 6.01171875 C-9.125 3.41796875 -9.125 3.41796875 -7.8515625 1.60546875 C-5.21708886 -0.20647692 -3.12028273 -0.12045209 0 0 Z M-5.125 3.41796875 C-5.455 4.73796875 -5.785 6.05796875 -6.125 7.41796875 C-3.815 7.41796875 -1.505 7.41796875 0.875 7.41796875 C0.545 6.09796875 0.215 4.77796875 -0.125 3.41796875 C-1.775 3.41796875 -3.425 3.41796875 -5.125 3.41796875 Z " fill="#008ACD" transform="translate(248.125,156.58203125)"/>
<path d="M0 0 C9.1796875 -0.29296875 9.1796875 -0.29296875 12 0 C14.49118953 3.7367843 14.2065226 5.74451819 14.125 10.1875 C14.10695313 11.45980469 14.08890625 12.73210937 14.0703125 14.04296875 C14.03550781 15.50669922 14.03550781 15.50669922 14 17 C13.01 17 12.02 17 11 17 C10.67 13.04 10.34 9.08 10 5 C8.35 4.67 6.7 4.34 5 4 C4.67 8.29 4.34 12.58 4 17 C2.68 17 1.36 17 0 17 C0 11.39 0 5.78 0 0 Z " fill="#008ACF" transform="translate(259,157)"/>
<path d="M0 0 C1.32 0 2.64 0 4 0 C4 6.6 4 13.2 4 20 C7.63 20 11.26 20 15 20 C15 20.99 15 21.98 15 23 C10.05 23 5.1 23 0 23 C0 15.41 0 7.82 0 0 Z " fill="#008CD0" transform="translate(355,151)"/>
<path d="M0 0 C1.875 0.328125 1.875 0.328125 3.875 1.640625 C4.875 3.328125 4.875 3.328125 4.875 6.328125 C3.555 5.998125 2.235 5.668125 0.875 5.328125 C0.875 4.668125 0.875 4.008125 0.875 3.328125 C-0.775 3.658125 -2.425 3.988125 -4.125 4.328125 C-5.16714691 8.94320274 -5.16714691 8.94320274 -4.125 13.328125 C-1.59766765 13.98367619 -1.59766765 13.98367619 0.875 14.328125 C1.205 13.338125 1.535 12.348125 1.875 11.328125 C2.865 11.328125 3.855 11.328125 4.875 11.328125 C4.5 13.765625 4.5 13.765625 3.875 16.328125 C0.67270558 17.92927221 -2.65000237 17.81135575 -6.125 17.328125 C-8.125 15.890625 -8.125 15.890625 -9.125 13.328125 C-9.65262985 9.22014974 -9.63953227 5.64661395 -8.125 1.765625 C-5.40108816 -0.19218663 -3.29613558 -0.16965404 0 0 Z " fill="#008ACF" transform="translate(337.125,156.671875)"/>
<path d="M0 0 C2 1.3125 2 1.3125 3 3 C3 3.99 3 4.98 3 6 C-0.41021743 5.21302675 -3.68885166 4.12880057 -7 3 C-7 5.97 -7 8.94 -7 12 C-4.60280568 12.67958603 -4.60280568 12.67958603 -2 13 C-1.34 12.34 -0.68 11.68 0 11 C0.99 11 1.98 11 3 11 C2.42655063 13.86724686 2.1385485 14.8614515 0 17 C-7.16328265 17.5685145 -7.16328265 17.5685145 -9.73046875 15.82421875 C-11.47538469 13.31690877 -11.39944797 11.53154767 -11.375 8.5 C-11.38273438 7.5409375 -11.39046875 6.581875 -11.3984375 5.59375 C-11 3 -11 3 -9.7265625 1.1796875 C-6.6945384 -0.89196698 -3.52575625 -0.55089941 0 0 Z " fill="#0089CE" transform="translate(219,157)"/>
<path d="M0 0 C1.98 0 3.96 0 6 0 C6 0.99 6 1.98 6 3 C5.01 3.33 4.02 3.66 3 4 C2.67 4.66 2.34 5.32 2 6 C3.32 6 4.64 6 6 6 C6 6.99 6 7.98 6 9 C4.68 9 3.36 9 2 9 C2 13.62 2 18.24 2 23 C1.01 23 0.02 23 -1 23 C-1 18.38 -1 13.76 -1 9 C-1.99 9 -2.98 9 -4 9 C-4 8.01 -4 7.02 -4 6 C-3.01 6 -2.02 6 -1 6 C-0.67 4.02 -0.34 2.04 0 0 Z " fill="#008BD0" transform="translate(308,151)"/>
<path d="M0 0 C0.99 0 1.98 0 3 0 C3 1.32 3 2.64 3 4 C4.65 4 6.3 4 8 4 C7.67 4.99 7.34 5.98 7 7 C5.68 7 4.36 7 3 7 C3.33 10.63 3.66 14.26 4 18 C4.99 18 5.98 18 7 18 C7 18.99 7 19.98 7 21 C4.625 21.125 4.625 21.125 2 21 C0 19 0 19 -0.1953125 16.1796875 C-0.17210937 15.08914062 -0.14890625 13.99859375 -0.125 12.875 C-0.10695313 11.77929688 -0.08890625 10.68359375 -0.0703125 9.5546875 C-0.04710937 8.71164063 -0.02390625 7.86859375 0 7 C-0.66 7 -1.32 7 -2 7 C-2 6.01 -2 5.02 -2 4 C-1.34 4 -0.68 4 0 4 C0 2.68 0 1.36 0 0 Z " fill="#008BD0" transform="translate(429,153)"/>
<path d="M0 0 C0.99 0 1.98 0 3 0 C3 1.32 3 2.64 3 4 C4.32 4 5.64 4 7 4 C7 4.99 7 5.98 7 7 C5.68 7 4.36 7 3 7 C3.33 10.3 3.66 13.6 4 17 C4.99 17.33 5.98 17.66 7 18 C7 18.99 7 19.98 7 21 C4.625 21.125 4.625 21.125 2 21 C0 19 0 19 -0.1953125 16.1796875 C-0.17210937 15.08914062 -0.14890625 13.99859375 -0.125 12.875 C-0.10695313 11.77929688 -0.08890625 10.68359375 -0.0703125 9.5546875 C-0.04710937 8.71164063 -0.02390625 7.86859375 0 7 C-0.66 7 -1.32 7 -2 7 C-2 6.01 -2 5.02 -2 4 C-1.34 4 -0.68 4 0 4 C0 2.68 0 1.36 0 0 Z " fill="#008CD1" transform="translate(281,153)"/>
<path d="M0 0 C1.32 0 2.64 0 4 0 C4 5.61 4 11.22 4 17 C2.68 17 1.36 17 0 17 C0 11.39 0 5.78 0 0 Z " fill="#0088CC" transform="translate(417,157)"/>
<path d="M0 0 C1.32 0 2.64 0 4 0 C4 5.61 4 11.22 4 17 C2.68 17 1.36 17 0 17 C0 11.39 0 5.78 0 0 Z " fill="#008AD1" transform="translate(228,157)"/>
<path d="M0 0 C0.99 0 1.98 0 3 0 C3 5.61 3 11.22 3 17 C2.01 17 1.02 17 0 17 C0 11.39 0 5.78 0 0 Z " fill="#008CD1" transform="translate(377,157)"/>
<path d="M0 0 C0.99 0 1.98 0 3 0 C3 5.61 3 11.22 3 17 C2.01 17 1.02 17 0 17 C0 11.39 0 5.78 0 0 Z " fill="#008CD1" transform="translate(318,157)"/>
<path d="M0 0 C0.99 0 1.98 0 3 0 C3 5.61 3 11.22 3 17 C2.01 17 1.02 17 0 17 C0 11.39 0 5.78 0 0 Z " fill="#008CD1" transform="translate(295,157)"/>
<path d="M0 0 C2.475 0.495 2.475 0.495 5 1 C4.67 1.99 4.34 2.98 4 4 C2.68 3.67 1.36 3.34 0 3 C0 2.01 0 1.02 0 0 Z " fill="#0081C3" transform="translate(317,151)"/>
<path d="M0 0 C1.32 0 2.64 0 4 0 C4 1.32 4 2.64 4 4 C2.68 3.67 1.36 3.34 0 3 C0 2.01 0 1.02 0 0 Z " fill="#0088CF" transform="translate(417,151)"/>
<path d="M0 0 C1.32 0 2.64 0 4 0 C4 1.32 4 2.64 4 4 C2.68 3.67 1.36 3.34 0 3 C0 2.01 0 1.02 0 0 Z " fill="#008ACF" transform="translate(376,151)"/>
<path d="M0 0 C1.32 0 2.64 0 4 0 C3.67 1.32 3.34 2.64 3 4 C2.01 4 1.02 4 0 4 C0 2.68 0 1.36 0 0 Z " fill="#008BD0" transform="translate(295,151)"/>
<path d="M0 0 C1.32 0 2.64 0 4 0 C3.67 1.32 3.34 2.64 3 4 C2.01 4 1.02 4 0 4 C0 2.68 0 1.36 0 0 Z " fill="#0083C3" transform="translate(228,151)"/>
</svg>
